<?xml version="1.0" encoding="iso-8859-1"?>
<!-- Generator: Adobe Illustrator 19.0.0, SVG Export Plug-In . SVG Version: 6.00 Build 0)  -->
<svg version="1.1" id="Capa_1" xmlns="http://www.w3.org/2000/svg" xmlns:xlink="http://www.w3.org/1999/xlink" x="0px" y="0px"
	 viewBox="0 0 512 512" style="enable-background:new 0 0 512 512;" xml:space="preserve">
<path style="fill:#FFCA28;" d="M208.023,320c0,17.673-14.327,32-32,32l0,0c-17.673,0-32-14.327-32-32v-16c0,17.673-14.327,32-32,32
	s-32-14.327-32-32V144c0.105-35.302,28.698-63.895,64-64h143.36c10.43-0.009,20.211,5.066,26.208,13.6l111.296,158.56
	c9.783,14.718,5.783,34.581-8.935,44.364c-12.979,8.628-30.287,6.65-40.985-4.684l-38.944-48.96V464c0,17.673-14.327,32-32,32
	c-17.673,0-32-14.327-32-32V336c0,17.673-14.327,32-32,32l0,0c-17.673,0-32-14.327-32-32V320z"/>
<path style="fill:#263238;" d="M336.023,16v64c0.456,8.328-5.884,15.468-14.208,16H94.231c-8.324-0.532-14.664-7.672-14.208-16V16
	C79.567,7.672,85.907,0.532,94.231,0h227.584C330.139,0.532,336.479,7.672,336.023,16z"/>
<path d="M304.023,512c-26.51,0-48-21.49-48-48l0,0V272c0-8.837,7.163-16,16-16c8.837,0,16,7.163,16,16v192c0,8.837,7.163,16,16,16
	s16-7.163,16-16V242.88c0-8.837,7.163-16,16-16s16,7.163,16,16V464C352.023,490.51,330.533,512,304.023,512L304.023,512z"/>
<path d="M240.023,384c-26.51,0-48-21.49-48-48v-48c0-8.837,7.163-16,16-16s16,7.163,16,16v48c0,8.837,7.163,16,16,16s16-7.163,16-16
	s7.163-16,16-16c8.837,0,16,7.163,16,16C288.023,362.51,266.533,384,240.023,384z"/>
<path d="M176.023,368c-26.51,0-48-21.49-48-48v-48c0-8.837,7.163-16,16-16c8.837,0,16,7.163,16,16v48c0,8.837,7.163,16,16,16
	s16-7.163,16-16s7.163-16,16-16s16,7.163,16,16C224.023,346.51,202.533,368,176.023,368z"/>
<path d="M336.023,96h-256c-8.837,0-16-7.163-16-16V16c0-8.837,7.163-16,16-16h256c8.837,0,16,7.163,16,16v64
	C352.023,88.837,344.859,96,336.023,96z M96.023,64h224V32h-224V64z"/>
<path d="M112.023,352c-26.51,0-48-21.49-48-48V144c0-44.183,35.817-80,80-80h143.36c15.637-0.012,30.3,7.594,39.296,20.384
	l111.328,158.592c7.71,9.764,11.169,22.218,9.6,34.56c-3.097,26.328-26.952,45.16-53.28,42.063
	c-12.66-1.489-24.208-7.954-32.096-17.967L323.479,252.8c-5.505-6.928-4.352-17.007,2.576-22.512
	c6.928-5.505,17.007-4.352,22.512,2.576l38.944,48.992c2.539,3.387,6.356,5.585,10.56,6.08c8.77,0.845,16.663-5.332,17.952-14.048
	c0.424-4.147-0.845-8.29-3.52-11.488l-112-159.616c-3.005-4.265-7.902-6.797-13.12-6.784h-143.36c-26.51,0-48,21.49-48,48v160
	c0,8.837,7.163,16,16,16s16-7.163,16-16s7.163-16,16-16c8.837,0,16,7.163,16,16C160.023,330.51,138.533,352,112.023,352z"/>
<g>
</g>
<g>
</g>
<g>
</g>
<g>
</g>
<g>
</g>
<g>
</g>
<g>
</g>
<g>
</g>
<g>
</g>
<g>
</g>
<g>
</g>
<g>
</g>
<g>
</g>
<g>
</g>
<g>
</g>
</svg>
