<svg id="Capa_1" enable-background="new 0 0 512 512" height="512" viewBox="0 0 512 512" width="512" xmlns="http://www.w3.org/2000/svg"><g><path d="m0 256c0-141.384 114.615-256 255.999-256 141.39 0 257.391 117.21 255.988 258.593-1.107 111.573-73.589 206.06-173.972 239.987-1.42.48-2.957.475-4.385.021-24.485-7.782-50.567-11.982-77.63-11.982-25.113 0-49.381 3.616-72.312 10.356-5.145 1.512-10.624 1.352-15.66-.49-98.049-35.879-168.028-130.01-168.028-240.485z" fill="#d63030"/><path d="m465.17 223.589c0 111.961-90.762 202.723-202.723 202.723s-202.724-90.762-202.724-202.723 90.763-202.723 202.724-202.723 202.723 90.762 202.723 202.723z" fill="#f44545"/><path d="m378 225.298v58.702c0 26.125-21.526 48.349-44.83 56.586v112.602c0 28.918-16.72 53.312-45.42 56.862-10.402 1.287-20.999 1.95-31.75 1.95-16.87 0-33.358-1.632-49.317-4.746-22.526-4.396-34.279-24.299-34.279-47.25l.509-117.004c-22.822-4.633-40-24.81-40-49 0 0-19.602-82.01-21.244-90.429l49.98-5.807c.816 4.134 3.839 7.534 8.053 7.534 5.176 0 7.534-4.435 7.083-9.591l-7.617-98.377-2.724-31.14c-.963-11.004 7.178-20.705 18.182-21.667l9.962-.871c11.003-.962 20.703 7.177 21.666 18.181l11.015 137.218c.309 3.536 3.27 6.248 6.818 6.248h.735c3.78 0 6.845-3.064 6.845-6.845l-.007-178.454c0-11.046 8.954-20 20-20h10c11.046 0 20 8.954 20 20l.007 178.204c0 3.543 2.587 6.686 6.112 7.055 3.695.388 6.958-2.196 7.5-5.783l20.712-148.259c1.497-9.897 10.008-16.997 19.719-17.012 1.005-.001 2.022.073 3.046.228 0 0 10.923 1.68 10.954 1.687 10.339 2.132 17.315 12.012 15.718 22.575l-20.462 146.604h3.034c11.046-.001 20 8.953 20 19.999z" fill="#f2bb88"/><path d="m375.429 58.694-16.942 123.328c-1.107 7.32-7.938 12.356-15.258 11.25-7.167-1.084-12.174-7.669-11.303-14.865l14.03-127.19c1.072-7.091 5.745-12.745 11.879-15.388 1.111.171 1.867.288 1.875.29 10.34 2.132 17.316 12.012 15.719 22.575zm-83.769-38.694c0-9.146-6.139-16.858-14.521-19.24-8.382 2.382-14.521 10.094-14.521 19.24v160.539c0 8.022 6.503 14.525 14.525 14.525 8.022 0 14.525-6.503 14.525-14.525zm-70.149 101.935c-.001-.013-5.258-60.103-5.258-60.103-.699-7.996-6.012-14.479-13.087-17.057-10.039 1.833-17.216 11.045-16.308 21.415l10.7 116.228c.732 7.183 6.782 12.647 14.002 12.647 8.257 0 14.879-7.075 14.16-15.301z" fill="#f2d1a5"/><path d="m208 354.994v152.513c-13.754-2.609-27.12-6.318-40-11.033v-127.4c0-13.328-6.439-25.99-17.554-33.345-11.917-7.885-20.259-20.737-22.074-35.605-.245-2.007-30.064-164.999-30.064-164.999-2.115-10.842 4.96-21.344 15.802-23.459l9.815-1.914c10.842-2.114 21.344 4.96 23.459 15.802 0 0 5.147 27.263 5.147 27.266 0 0 23.975 117.78 26.193 130.701 2.187 12.736 9.191 23.826 19.07 31.327 12.605 9.569 10.206 24.319 10.206 40.146zm94.632-88.994c-17.794 0-34.343 9.43-46.599 26.553-11.713 16.364-18.164 38.009-18.164 60.947 0 4.142 3.358 7.5 7.5 7.5s7.5-3.358 7.5-7.5c0-39.977 22.323-72.5 49.763-72.5 4.142 0 7.5-3.358 7.5-7.5s-3.358-7.5-7.5-7.5z" fill="#e3a76f"/><path d="m150.297 214.708c-7.743 1.51-15.257-3.497-16.845-11.224l-14.548-71.691c-1.836-9.416 3.258-18.575 11.731-22.208 8.172 1.189 15.078 7.403 16.749 15.968 0 0 9.042 46.134 14.266 72.211 1.566 7.819-3.526 15.418-11.353 16.944z" fill="#f2bb88"/><path d="m406.967 169.729-22.708 97.388c-.042.181-.087.361-.134.54l-7.05 30.233c-.708 3.038-1.855 5.858-3.357 8.412-4.127 10.303-11.03 19.194-19.782 25.751-9.919 7.43-15.936 18.948-15.936 31.341v135.191c-16.134 5.452-32.989 9.339-50.383 11.481v-138.826c0-21.293 9.721-41.778 27.094-54.09 5.124-3.631 8.678-9.274 10.93-17.824.077-1.013 25.448-110.179 25.448-110.179.042-.182.087-.363.135-.543l4.778-20.492c3.762-16.136 19.893-26.166 36.029-22.404 10.757 2.51 17.444 13.263 14.936 24.021z" fill="#f2d1a5"/><path d="m406.967 169.729-15.941 68.416c-1.733 7.438-9.167 12.061-16.604 10.327-7.434-1.734-12.055-9.164-10.325-16.598l11.139-47.845c3.433-14.724 17.166-24.364 31.803-23.079.611 2.808.624 5.793-.072 8.779z" fill="#ffe4c2"/><path d="m407.534 167.294-4.428 18.99c-.502 2.152-2.652 3.489-4.804 2.987l-11.687-2.725c-2.151-.502-3.489-2.652-2.987-4.804l3.065-13.147c1.63-6.992 8.62-11.339 15.613-9.708 3.766.878 6.106 4.642 5.228 8.407z" fill="#fff2de"/><path d="m218.182 385.6c0 5.523-4.477 10-10 10h-42.182c-5.523 0-10-4.477-10-10s4.477-10 10-10h42.182c5.523 0 10 4.477 10 10z" fill="#464646"/><path d="m356 385.6c0 5.523-4.477 10-10 10h-142.83c-5.523 0-10-4.477-10-10s4.477-10 10-10h142.83c5.523 0 10 4.477 10 10z" fill="#5a5a5a"/><path d="m218.182 475.6c0 5.523-4.477 10-10 10h-42.182c-5.523 0-10-4.477-10-10s4.477-10 10-10h42.182c5.523 0 10 4.477 10 10z" fill="#55a4f9"/><path d="m356 475.6c0 5.523-4.477 10-10 10h-141.447c-5.523 0-10-4.477-10-10s4.477-10 10-10h141.447c5.523 0 10 4.477 10 10z" fill="#86befb"/><path d="m218.182 415.6v20c0 5.523-4.477 10-10 10h-38.182c-5.523 0-10-4.477-10-10v-20c0-5.523 4.477-10 10-10h38.182c5.523 0 10 4.477 10 10z" fill="#ffc14f"/><path d="m350 415.6v20c0 5.523-4.477 10-10 10h-130.064c-11.046 0-20-8.954-20-20 0-11.046 8.954-20 20-20h130.064c5.523 0 10 4.477 10 10z" fill="#fff36c"/></g></svg>